<?xml version="1.0" standalone="no"?>
<!DOCTYPE svg PUBLIC "-//W3C//DTD SVG 20010904//EN"
 "http://www.w3.org/TR/2001/REC-SVG-20010904/DTD/svg10.dtd">
<svg version="1.0" xmlns="http://www.w3.org/2000/svg"
 width="36217.000000pt" height="7598.000000pt" viewBox="0 0 36217.000000 7598.000000"
 preserveAspectRatio="xMidYMid meet">

<g transform="translate(0.000000,7598.000000) scale(0.100000,-0.100000)"
fill="#000000" stroke="none">
<path d="M235070 66103 c0 -6291 4 -9992 10 -10193 18 -561 45 -1106 100
-2004 17 -264 29 -481 27 -482 -2 -2 -30 43 -62 99 -392 675 -930 1402 -1529
2067 -168 187 -689 708 -876 876 -881 794 -1793 1429 -2811 1959 -2391 1244
-5127 1769 -8129 1560 -1952 -137 -3833 -589 -5575 -1343 -2232 -965 -4233
-2431 -5876 -4304 -2220 -2531 -3764 -5749 -4533 -9449 -298 -1432 -464 -2824
-538 -4504 -17 -382 -17 -1906 0 -2305 25 -596 50 -1009 87 -1470 411 -5021
2012 -9229 4684 -12310 349 -402 947 -1016 1309 -1344 1912 -1729 4113 -2918
6671 -3602 2294 -615 4948 -785 7206 -463 2426 345 4641 1244 6515 2643 1388
1037 2575 2355 3385 3759 37 64 70 116 71 114 2 -2 -5 -136 -16 -298 -103
-1534 -120 -2074 -120 -3766 l0 -1303 3935 0 3935 0 0 27970 0 27970 -3935 0
-3935 0 0 -9877z m-9825 -12362 c724 -55 1333 -154 1945 -316 1979 -522 3706
-1640 5079 -3289 638 -766 1224 -1694 1676 -2656 918 -1951 1445 -4180 1590
-6720 38 -666 45 -1793 15 -2390 -99 -2009 -399 -3707 -940 -5330 -974 -2925
-2661 -5207 -4860 -6577 -682 -425 -1455 -780 -2202 -1012 -1030 -320 -2065
-466 -3178 -448 -470 8 -778 29 -1195 82 -2472 316 -4647 1505 -6319 3454
-1510 1759 -2568 4096 -3075 6794 -185 978 -287 1889 -343 3032 -17 346 -17
1596 0 1940 58 1197 171 2149 377 3180 300 1504 746 2830 1376 4095 527 1057
1103 1922 1836 2757 182 207 707 736 903 909 1250 1105 2623 1838 4165 2223
640 159 1190 238 2000 285 123 7 1015 -3 1150 -13z"/>
<path d="M119732 70043 l3 -4478 4368 -3 4367 -2 0 4480 0 4480 -4370 0 -4370
0 2 -4477z"/>
<path d="M96060 65310 l0 -6590 -3860 0 -3860 0 0 -3205 0 -3205 3860 0 3860
0 3 -10812 c2 -8048 6 -10864 15 -11013 25 -433 33 -559 53 -795 104 -1268
328 -2410 678 -3460 362 -1083 841 -2013 1462 -2840 1346 -1791 3300 -2963
5846 -3509 1499 -321 3292 -425 5033 -291 960 74 2050 220 3095 415 104 19
193 35 197 35 4 0 8 1476 8 3280 0 2194 -3 3280 -10 3280 -6 0 -56 -7 -112
-15 -437 -66 -1139 -136 -1688 -170 -1639 -99 -2817 27 -3780 406 -288 113
-565 255 -813 416 -474 308 -853 688 -1170 1175 -120 184 -170 272 -276 487
-406 824 -619 1835 -661 3136 -6 199 -10 3883 -10 10293 l0 9982 4260 0 4260
0 0 3205 0 3205 -4260 0 -4260 0 0 6590 0 6590 -3935 0 -3935 0 0 -6590z"/>
<path d="M142250 65310 l0 -6590 -3860 0 -3860 0 0 -3205 0 -3205 3860 0 3860
0 0 -10582 c0 -10250 2 -10913 30 -11438 100 -1863 435 -3468 1010 -4840 1246
-2971 3596 -4836 7017 -5569 1501 -322 3289 -425 5033 -291 960 74 2050 220
3095 415 104 19 193 35 197 35 4 0 8 1476 8 3280 0 2194 -3 3280 -10 3280 -6
0 -56 -7 -112 -15 -437 -66 -1139 -136 -1688 -170 -1639 -99 -2818 28 -3780
406 -471 185 -887 432 -1247 741 -712 612 -1208 1511 -1463 2654 -99 444 -155
875 -202 1534 -9 124 -13 2730 -15 10363 l-3 10197 4260 0 4260 0 0 3205 0
3205 -4260 0 -4260 0 0 6590 0 6590 -3935 0 -3935 0 0 -6590z"/>
<path d="M332601 68193 c-13 -2 -155 -51 -315 -108 -4954 -1751 -9268 -4264
-12976 -7559 -1144 -1017 -2307 -2180 -3316 -3316 -2617 -2945 -4661 -6155
-6159 -9670 -1514 -3553 -2366 -7146 -2555 -10780 -24 -476 -31 -698 -37
-1300 -30 -3109 377 -5819 1218 -8105 696 -1895 1679 -3483 2974 -4803 1484
-1514 3253 -2522 5346 -3047 810 -203 1607 -320 2629 -387 266 -18 1530 -18
1815 0 1843 113 3392 446 4965 1067 2339 925 4363 2390 5822 4218 1487 1862
2336 3923 2537 6162 36 392 45 612 45 1060 0 560 -22 932 -85 1423 -207 1633
-782 3086 -1713 4326 -288 383 -515 644 -822 946 -1259 1235 -3022 1961 -5314
2189 -575 58 -1018 75 -1754 68 -596 -5 -735 -11 -1171 -47 -2994 -249 -5532
-1340 -7655 -3290 -201 -184 -654 -640 -841 -846 -300 -330 -699 -807 -719
-859 -40 -106 40 -281 196 -424 142 -130 313 -172 461 -113 28 11 119 86 260
213 418 375 762 667 1154 981 1359 1088 2505 1762 3624 2133 1119 371 2313
503 3605 400 1732 -139 3164 -745 4244 -1795 831 -808 1526 -1944 1951 -3190
351 -1031 541 -2113 596 -3395 13 -307 7 -1216 -10 -1470 -32 -476 -69 -832
-122 -1190 -307 -2078 -1114 -3768 -2418 -5065 -1482 -1474 -3394 -2210 -5741
-2210 -1674 0 -3215 382 -4545 1125 -1338 748 -2503 1866 -3492 3350 -534 803
-1002 1667 -1405 2600 -892 2059 -1435 4460 -1603 7085 -44 690 -58 1150 -58
1910 0 641 9 986 38 1520 180 3232 925 6477 2247 9785 532 1330 1111 2547
1804 3793 1275 2289 2858 4479 4750 6572 1622 1796 3275 3308 5169 4730 2201
1653 4695 3125 7345 4335 395 180 394 180 424 216 90 106 95 252 17 456 -57
147 -135 244 -229 286 -45 19 -136 30 -181 20z"/>
<path d="M24542 66490 c-101 -27 -184 -74 -240 -135 -46 -50 -216 -461 -5311
-12836 -10986 -26680 -10048 -24408 -10406 -25214 -784 -1767 -1548 -3201
-2238 -4200 -549 -794 -1116 -1426 -1701 -1893 -719 -576 -1531 -937 -2551
-1136 -470 -91 -954 -140 -1524 -152 -301 -6 -354 -14 -426 -64 -51 -35 -88
-87 -116 -165 -19 -51 -22 -82 -23 -205 -1 -188 19 -261 95 -344 100 -110 136
-114 874 -97 848 19 1823 64 2735 126 914 62 2279 121 3350 146 562 13 2294 7
2845 -10 1304 -40 2230 -79 3225 -136 1346 -76 2082 -107 2983 -126 613 -13
654 -11 746 36 104 53 157 156 176 340 8 77 -10 221 -36 290 -27 71 -87 138
-157 172 l-57 28 -410 7 c-225 4 -536 12 -690 18 -2187 85 -3756 456 -4740
1121 -351 237 -648 530 -864 853 -728 1088 -733 2616 -14 4811 77 235 243 695
342 950 39 99 1546 3752 3348 8118 l3277 7937 6894 -2 6893 -3 4280 -9255
c2355 -5090 4327 -9363 4384 -9495 365 -854 606 -1639 687 -2245 29 -218 31
-578 5 -745 -129 -811 -636 -1326 -1617 -1643 -812 -261 -1926 -392 -3590
-420 -400 -7 -406 -7 -453 -31 -87 -42 -138 -141 -158 -303 -17 -145 4 -316
51 -408 29 -57 92 -107 157 -126 54 -16 97 -16 573 -5 805 18 1594 54 2765
126 1713 105 3040 155 4140 155 997 0 1855 -30 3935 -135 1700 -86 2710 -126
3743 -146 698 -14 684 -15 768 69 59 60 86 132 101 268 26 242 -38 446 -159
505 -44 22 -65 24 -278 31 -1033 33 -1877 254 -2650 693 -904 513 -1799 1442
-2722 2825 -819 1228 -1760 3013 -2783 5280 -106 236 -16815 36435 -16902
36617 -27 59 -97 117 -171 144 -91 32 -284 37 -385 9z m2344 -13167 l3350
-7198 -6305 -3 c-3467 -1 -6306 0 -6309 2 -5 6 5901 14396 5908 14396 3 0
1513 -3239 3356 -7197z"/>
<path d="M68295 60024 c-611 -22 -1020 -47 -1430 -84 -2881 -266 -5580 -1103
-7959 -2467 -2460 -1411 -4531 -3345 -6121 -5718 -2043 -3049 -3219 -6724
-3450 -10785 -51 -910 -53 -2045 -5 -3025 126 -2533 539 -4810 1258 -6945
1087 -3222 2866 -5924 5247 -7968 2352 -2019 5273 -3365 8585 -3956 1864 -333
3868 -425 5970 -275 4840 345 8785 1998 11575 4850 2349 2401 3829 5606 4349
9414 34 247 76 604 76 643 l0 32 -3932 -2 -3932 -3 -23 -160 c-135 -961 -350
-1841 -645 -2630 -933 -2501 -2637 -4286 -4983 -5220 -1258 -500 -2711 -746
-4265 -722 -657 11 -1142 54 -1757 157 -2504 421 -4690 1725 -6318 3769 -1337
1680 -2281 3837 -2769 6326 -440 2250 -506 4847 -180 7135 227 1597 651 3120
1239 4450 875 1981 2108 3606 3628 4785 1533 1187 3318 1895 5258 2084 351 35
492 42 914 48 672 9 1207 -25 1820 -118 1350 -205 2587 -681 3649 -1406 264
-181 540 -395 791 -614 153 -133 561 -538 696 -690 552 -620 988 -1269 1373
-2049 431 -870 737 -1806 926 -2824 41 -226 100 -615 119 -791 6 -55 14 -115
17 -132 l5 -33 4044 0 4044 0 -5 33 c-2 17 -15 136 -29 262 -387 3509 -1680
6631 -3746 9041 -440 514 -970 1050 -1474 1495 -1979 1742 -4454 2967 -7275
3598 -1184 265 -2337 414 -3735 482 -204 10 -1370 20 -1550 13z"/>
<path d="M120170 39380 l0 -19340 3935 0 3935 0 0 19340 0 19340 -3935 0
-3935 0 0 -19340z"/>
<path d="M165924 58707 c-2 -7 -3 -5700 -1 -12652 3 -9325 6 -12704 15 -12885
39 -822 74 -1300 143 -1900 375 -3290 1451 -6056 3158 -8115 441 -532 1027
-1118 1537 -1536 919 -755 1936 -1358 3062 -1816 1260 -512 2662 -845 4152
-987 638 -61 1058 -80 1765 -80 567 0 789 7 1230 40 2901 216 5501 1218 7505
2892 600 500 1190 1109 1647 1698 451 582 807 1143 1135 1793 70 139 128 247
128 239 0 -8 -7 -111 -15 -229 -34 -501 -70 -1138 -106 -1934 -7 -139 -13
-864 -16 -1718 l-5 -1477 3864 2 3863 3 0 19335 0 19335 -3935 0 -3935 0 -7
-11410 c-3 -6275 -9 -11441 -12 -11480 -4 -38 -13 -189 -21 -335 -9 -146 -27
-393 -41 -550 -411 -4694 -2404 -7949 -5664 -9250 -1260 -503 -2751 -705
-4300 -584 -3312 258 -5494 1989 -6548 5194 -381 1157 -617 2542 -692 4050 -6
118 -13 240 -16 270 -4 30 -9 5464 -13 12075 l-6 12020 -3933 3 c-3183 2
-3934 0 -3938 -11z"/>
<path d="M342557 49806 c-60 -25 -138 -83 -161 -120 -17 -26 -2686 -10652
-2686 -10692 0 -44 37 -109 80 -139 86 -59 269 -95 488 -95 128 0 200 12 262
43 l45 22 76 275 c667 2413 1561 4336 2644 5685 225 280 363 434 610 681 1336
1336 2938 2046 4885 2164 214 13 838 13 1066 0 1993 -113 3471 -791 4489
-2060 761 -948 1293 -2196 1549 -3635 124 -693 182 -1347 193 -2175 32 -2379
-437 -4370 -1409 -5995 -809 -1350 -1932 -2385 -3593 -3309 -264 -147 -890
-460 -1180 -590 -1186 -532 -2486 -978 -4026 -1379 -157 -41 -304 -84 -327
-96 -101 -52 -139 -168 -108 -334 48 -257 179 -486 294 -517 40 -10 61 -7 245
39 723 180 1463 296 2277 356 753 55 1588 59 2210 9 2162 -171 3803 -933 4953
-2297 225 -267 515 -681 740 -1057 775 -1294 1249 -2746 1431 -4380 59 -531
80 -926 80 -1545 0 -633 -20 -1008 -85 -1590 -249 -2245 -1033 -4463 -2351
-6650 -435 -722 -963 -1491 -1472 -2145 -1204 -1547 -2744 -2901 -4656 -4092
-2090 -1302 -4626 -2400 -7548 -3268 -185 -56 -356 -108 -379 -116 -134 -49
-169 -169 -104 -362 94 -282 244 -437 421 -435 67 0 225 41 864 224 2973 850
5608 1906 7951 3187 1010 552 1965 1151 2910 1825 1130 807 2166 1649 3098
2519 222 208 939 925 1137 1138 1211 1302 2156 2610 2932 4060 1339 2500 1917
4967 1733 7395 -166 2179 -938 4092 -2325 5760 -1145 1377 -2602 2320 -4450
2881 -827 251 -1743 420 -2764 511 l-89 8 199 89 c1020 458 2006 1066 2839
1748 532 437 1078 973 1531 1503 479 562 938 1215 1334 1900 935 1617 1478
3310 1625 5070 48 584 50 1301 5 1820 -168 1906 -871 3530 -2145 4955 -755
844 -1687 1493 -2740 1905 -1113 436 -2382 635 -3806 595 -1137 -32 -1894
-151 -3157 -496 -618 -169 -1560 -465 -1822 -574 -684 -283 -1271 -455 -1750
-511 -169 -20 -463 -15 -604 10 -400 71 -657 260 -795 588 -98 229 -131 580
-82 868 30 178 109 532 127 567 20 38 2 72 -60 116 -127 92 -308 151 -476 158
-105 5 -120 3 -173 -20z"/>
<path d="M285435 49099 c-1038 -25 -2055 -147 -3020 -360 -2126 -471 -4119
-1420 -5685 -2708 -533 -438 -1115 -1017 -1544 -1536 -1366 -1651 -2133 -3504
-2325 -5620 -35 -385 -45 -609 -45 -1045 0 -519 20 -848 79 -1325 194 -1548
789 -3160 1613 -4370 304 -446 621 -826 1041 -1245 526 -525 1112 -988 1776
-1402 1300 -811 2913 -1283 4795 -1403 1008 -64 2082 -31 3080 96 2949 373
5413 1582 7375 3618 280 291 384 409 391 448 20 107 -57 240 -225 386 -116
101 -249 157 -372 157 -106 0 -153 -21 -275 -123 -60 -49 -201 -163 -314 -252
-1199 -947 -2280 -1608 -3217 -1968 -987 -380 -2109 -567 -3403 -567 -2107 0
-3820 535 -5165 1615 -627 504 -1206 1169 -1698 1952 -857 1362 -1351 2941
-1477 4718 -44 622 -41 1393 6 2025 162 2173 832 3909 2020 5230 159 178 483
494 659 644 1020 872 2261 1417 3700 1625 422 61 786 89 1270 98 2181 38 4072
-539 5650 -1724 368 -276 607 -485 961 -838 1399 -1396 2544 -3160 3349 -5160
371 -921 676 -1899 974 -3117 665 -2714 908 -5410 731 -8098 -206 -3112 -994
-6306 -2358 -9550 -500 -1188 -1106 -2406 -1758 -3531 -1135 -1957 -2493
-3824 -4084 -5614 -798 -898 -1777 -1896 -2595 -2646 -2996 -2749 -6498 -4934
-10575 -6600 -140 -57 -273 -117 -295 -134 -22 -17 -53 -53 -70 -79 -71 -117
-31 -316 106 -517 71 -105 177 -179 255 -179 53 0 1122 349 1729 565 3818
1355 7226 3198 10260 5548 761 590 1531 1241 2285 1931 757 694 1694 1631
2386 2386 2241 2446 4131 5214 5522 8085 1665 3438 2674 6864 3056 10380 159
1461 205 3062 131 4515 -147 2842 -734 5376 -1760 7595 -1098 2374 -2622 4274
-4551 5671 -1990 1442 -4289 2236 -6938 2399 -246 15 -917 36 -1071 33 -44 -1
-215 -5 -380 -9z"/>
<path d="M250014 48147 c-44 -21 -97 -88 -117 -149 -30 -90 -43 -262 -30 -390
19 -181 59 -270 138 -308 38 -19 62 -20 321 -20 921 -1 1997 -55 2684 -136
1001 -117 1605 -285 2094 -582 592 -360 932 -846 1136 -1627 121 -459 185
-922 242 -1740 17 -239 24 -17445 8 -17870 -55 -1444 -286 -2379 -731 -2970
-246 -327 -543 -568 -959 -779 -430 -218 -922 -359 -1640 -470 -715 -111
-1861 -184 -2900 -186 -240 0 -276 -8 -319 -68 -61 -87 -93 -293 -74 -485 19
-185 75 -293 167 -318 95 -26 2471 13 3136 51 80 5 1236 26 2570 48 l2425 40
2450 -39 c1364 -22 2574 -46 2730 -54 481 -24 898 -34 1913 -47 787 -10 992
-9 1030 1 123 32 174 158 175 426 1 242 -43 380 -135 423 -41 19 -71 20 -548
26 -2009 25 -3308 179 -4080 481 -497 195 -889 482 -1160 850 -96 130 -150
221 -229 385 -272 567 -422 1387 -471 2585 -14 330 -13 17407 0 17715 46 1036
185 1810 425 2375 312 733 914 1244 1809 1534 808 262 2064 406 3716 426 256
4 480 8 498 11 18 3 48 19 68 36 78 69 107 177 107 398 0 221 -29 329 -107
398 -20 17 -53 34 -73 38 -45 9 -1420 -3 -1993 -16 -470 -11 -923 -27 -1165
-41 -93 -5 -1248 -27 -2565 -48 l-2395 -38 -2435 38 c-1339 21 -2509 43 -2600
48 -489 29 -1313 49 -2315 56 -653 5 -775 4 -801 -8z"/>
</g>
</svg>
